PathFileType	4	(x/y/z)	S09_PSF_T03
DataRate	CameraRate	NumFrames	NumMarkers	Units	OrigDataRate	OrigDataStartFrame	OrigNumFrames
240	240	9	51	mm	240	1	461
Frame#	Time	Sternum			R.Acromium			L.Acromium			Top.Head			R.ASIS			L.ASIS			R.PSIS			L.PSIS			R.Great.Tro			L.Great.Tro			R.Iliac.Crest			L.Iliac.Crest			V.Sacral			R.Thigh.Upper.Post			R.Thigh.Lower.Ant			R.Thigh.Lower.Post			R.Thigh.Upper.Ant			R.Knee.Lat			R.Knee.Med			R.Shank.Upper.Post			R.Shank.Lower.Ant			R.Shank.Lower.Post			R.Shank.Upper.Ant			R.Ankle.Lat			R.Ankle.Med			R.Heel.Upper			R.Heel.Med			R.Heel.Lat			R.Toe.Lat			R.Toe.Med			R.Toe.Tip			L.Thigh.Upper.Post			L.Thigh.Lower.Ant			L.Thigh.Lower.Post			L.Thigh.Upper.Ant			L.Knee.Lat			L.Knee.Med			L.Shank.Upper.Post			L.Shank.Lower.Ant			L.Shank.Lower.Post			L.Shank.Upper.Ant			L.Ankle.Lat			L.Ankle.Med			L.Heel.Upper			L.Heel.Med			L.Heel.Lat			L.Toe.Lat			L.Toe.Med			L.Toe.Tip			Cervical.Spine			Back			
		X1	Y1	Z1	X2	Y2	Z2	X3	Y3	Z3	X4	Y4	Z4	X5	Y5	Z5	X6	Y6	Z6	X7	Y7	Z7	X8	Y8	Z8	X9	Y9	Z9	X10	Y10	Z10	X11	Y11	Z11	X12	Y12	Z12	X13	Y13	Z13	X14	Y14	Z14	X15	Y15	Z15	X16	Y16	Z16	X17	Y17	Z17	X18	Y18	Z18	X19	Y19	Z19	X20	Y20	Z20	X21	Y21	Z21	X22	Y22	Z22	X23	Y23	Z23	X24	Y24	Z24	X25	Y25	Z25	X26	Y26	Z26	X27	Y27	Z27	X28	Y28	Z28	X29	Y29	Z29	X30	Y30	Z30	X31	Y31	Z31	X32	Y32	Z32	X33	Y33	Z33	X34	Y34	Z34	X35	Y35	Z35	X36	Y36	Z36	X37	Y37	Z37	X38	Y38	Z38	X39	Y39	Z39	X40	Y40	Z40	X41	Y41	Z41	X42	Y42	Z42	X43	Y43	Z43	X44	Y44	Z44	X45	Y45	Z45	X46	Y46	Z46	X47	Y47	Z47	X48	Y48	Z48	X49	Y49	Z49	X50	Y50	Z50	X51	Y51	Z51	

1	0	NaN	NaN	NaN	-1662.2	1423.4	489.34	-1679.8	1408.2	177.85	-1658.7	1717.3	320.58	NaN	NaN	NaN	NaN	NaN	NaN	-1818.6	1035.3	368.25	-1806.1	1024.7	279.82	-1699.8	925.77	533.61	NaN	NaN	NaN	-1694.8	1088.6	499.54	-1690.5	1087.3	174.47	-1831.8	994.78	320.92	NaN	NaN	NaN	NaN	NaN	NaN	NaN	NaN	NaN	NaN	NaN	NaN	-1787.6	505.35	450.01	NaN	NaN	NaN	-1922.5	367.96	451.22	NaN	NaN	NaN	-1951.7	298.24	437.42	NaN	NaN	NaN	NaN	NaN	NaN	-1968.3	120.53	326.65	-2064	102.03	365.41	NaN	NaN	NaN	-2065.5	75.443	402.9	-1898.1	57.176	456.86	-1857.5	45.535	354.5	-1809.2	54.359	402.11	-1637	640.25	187.72	-1535.4	575.69	179.76	-1595.6	561.94	204.92	-1578.8	653.09	156.07	-1512.4	503.04	192.11	-1500.3	511.32	328.5	NaN	NaN	NaN	-1390.4	316.76	188.5	-1452	296.36	188.17	-1425.4	385.12	181.34	-1322	129.6	205.98	-1295.6	146.35	295.69	-1356.4	62.518	268.47	-1329.4	55.671	297.37	-1335.6	35.124	241.75	-1202.2	125.69	162.16	-1163.2	166.45	264.02	-1140.5	201.28	197.54	-1745.7	1468.7	348.07	-1803.5	1202.4	341.06
2	0.0041667	NaN	NaN	NaN	-1657.2	1422.3	488.73	-1674.7	1407.4	177.18	-1653.7	1716.4	320.05	NaN	NaN	NaN	NaN	NaN	NaN	-1813.3	1034.2	367.69	-1800.7	1023.9	279.22	-1694.5	924.54	532.99	NaN	NaN	NaN	-1689.5	1087.4	499.08	-1685	1086.7	174.04	-1826.3	993.73	320.26	NaN	NaN	NaN	NaN	NaN	NaN	NaN	NaN	NaN	NaN	NaN	NaN	-1782.8	504.22	449.37	NaN	NaN	NaN	-1918.7	368.12	450.67	NaN	NaN	NaN	-1948.7	298.75	437.03	NaN	NaN	NaN	NaN	NaN	NaN	-1967.4	121.28	326.55	-2063.3	103.52	365.35	NaN	NaN	NaN	-2064.9	77.065	402.8	-1897	58.329	456.78	-1857.3	45.542	354.58	-1809	54.14	402.22	-1630	639.74	187.41	-1529	575.78	179.76	-1588.5	561.59	204.8	-1571.8	652.8	156.13	-1505.9	502.77	192.64	-1493.2	511.73	328.49	-1483.2	362.25	184.19	-1386.1	314.72	189.28	-1447.9	295.24	188.58	-1420.1	383.72	182.03	-1320.3	127.4	206.62	-1294.2	143.29	296.69	-1355	60.896	268.75	-1327.6	53.35	298.06	-1335.2	33.748	241.93	-1200.1	122.37	163.32	-1161.5	162.53	265.64	-1138.1	197.34	199.21	-1740.6	1467.7	347.39	-1798.2	1201.4	340.34
3	0.0083333	NaN	NaN	NaN	-1652.1	1421.1	488.08	-1669.3	1406.5	176.47	-1648.5	1715.6	319.51	NaN	NaN	NaN	NaN	NaN	NaN	-1807.7	1033	367.11	-1795	1022.9	278.61	-1689	923.28	532.35	NaN	NaN	NaN	-1684	1086.3	498.59	-1679.4	1086.2	173.58	-1820.5	992.65	319.58	NaN	NaN	NaN	NaN	NaN	NaN	NaN	NaN	NaN	NaN	NaN	NaN	-1777.7	503.05	448.7	NaN	NaN	NaN	-1914.7	368.31	450.1	NaN	NaN	NaN	-1945.6	299.3	436.62	NaN	NaN	NaN	NaN	NaN	NaN	-1966.4	122.09	326.45	-2062.6	105.13	365.29	NaN	NaN	NaN	-2064.2	78.832	402.68	-1896.1	59.355	456.74	-1857.1	45.546	354.66	-1808.7	53.915	402.34	-1622.8	639.21	187.09	-1522.2	575.85	179.77	-1581.2	561.23	204.67	-1564.4	652.5	156.2	-1499.3	502.51	193.19	-1485.8	512.14	328.49	-1478.3	361.69	184.53	-1381.6	312.66	190.08	-1443.5	294.1	189	-1414.7	382.28	182.76	-1318.5	125.19	207.26	-1292.7	140.2	297.7	-1353.5	59.364	269.03	-1325.7	51.096	298.75	-1334.6	32.447	242.12	-1197.9	118.95	164.5	-1159.8	158.45	267.24	-1135.6	193.24	200.89	-1735.3	1466.7	346.68	-1792.7	1200.4	339.59
4	0.0125	NaN	NaN	NaN	-1646.7	1420	487.41	-1663.8	1405.7	175.74	-1643.2	1714.7	318.94	NaN	NaN	NaN	NaN	NaN	NaN	-1801.9	1031.8	366.51	-1789.1	1022	277.97	-1683.2	921.98	531.68	NaN	NaN	NaN	-1678.3	1085.1	498.09	-1673.5	1085.6	173.09	-1814.5	991.56	318.87	NaN	NaN	NaN	NaN	NaN	NaN	NaN	NaN	NaN	NaN	NaN	NaN	-1772.5	501.84	448.01	NaN	NaN	NaN	-1910.6	368.53	449.51	NaN	NaN	NaN	-1942.4	299.88	436.2	NaN	NaN	NaN	NaN	NaN	NaN	-1965.3	122.97	326.34	-2061.8	106.87	365.21	NaN	NaN	NaN	-2063.4	80.748	402.55	-1895.4	60.219	456.73	-1856.9	45.547	354.75	-1808.5	53.687	402.46	-1615.4	638.69	186.77	-1515.3	575.89	179.8	-1573.7	560.86	204.55	-1556.9	652.19	156.29	-1492.7	502.28	193.73	-1478.1	512.55	328.47	-1473.2	361.12	184.87	-1377	310.61	190.88	-1439	292.97	189.42	-1409.1	380.83	183.52	-1316.5	123.01	207.91	-1291	137.12	298.69	-1352	57.966	269.31	-1323.8	48.956	299.43	-1334.1	31.256	242.32	-1195.6	115.46	165.68	-1157.8	154.24	268.8	-1132.9	189	202.55	-1729.8	1465.7	345.94	-1787	1199.3	338.81
5	0.016667	NaN	NaN	NaN	-1641.3	1418.8	486.7	-1658.1	1404.8	174.98	-1637.7	1713.7	318.36	NaN	NaN	NaN	NaN	NaN	NaN	-1795.9	1030.6	365.9	-1783.1	1021	277.31	-1677.3	920.66	530.99	NaN	NaN	NaN	-1672.4	1083.9	497.56	-1667.5	1085	172.58	-1808.3	990.45	318.14	NaN	NaN	NaN	NaN	NaN	NaN	NaN	NaN	NaN	NaN	NaN	NaN	-1767	500.6	447.29	NaN	NaN	NaN	-1906.3	368.77	448.91	NaN	NaN	NaN	-1939	300.52	435.76	NaN	NaN	NaN	NaN	NaN	NaN	-1964.1	123.91	326.22	-2060.9	108.74	365.11	NaN	NaN	NaN	-2062.6	82.817	402.39	-1894.8	60.895	456.76	-1856.6	45.545	354.83	-1808.2	53.458	402.59	-1607.8	638.17	186.44	-1508.1	575.9	179.85	-1566	560.49	204.42	-1549.2	651.88	156.38	-1486	502.09	194.27	-1470.4	512.96	328.46	-1467.8	360.55	185.21	-1372.2	308.59	191.68	-1434.3	291.85	189.86	-1403.4	379.37	184.29	-1314.3	120.89	208.55	-1289.2	134.09	299.66	-1350.3	56.739	269.59	-1322	46.973	300.08	-1333.4	30.206	242.52	-1193.2	111.93	166.86	-1155.8	149.92	270.3	-1130.1	184.65	204.18	-1724.2	1464.7	345.17	-1781.1	1198.2	338
6	0.020833	NaN	NaN	NaN	-1635.7	1417.7	485.98	-1652.2	1404	174.19	-1632.1	1712.8	317.76	NaN	NaN	NaN	NaN	NaN	NaN	-1789.7	1029.4	365.28	-1776.8	1020.1	276.65	-1671.2	919.32	530.27	NaN	NaN	NaN	-1666.3	1082.7	497.02	-1661.3	1084.4	172.05	-1802	989.34	317.4	NaN	NaN	NaN	NaN	NaN	NaN	NaN	NaN	NaN	NaN	NaN	NaN	-1761.3	499.33	446.56	NaN	NaN	NaN	-1901.8	369.05	448.3	NaN	NaN	NaN	-1935.4	301.19	435.31	NaN	NaN	NaN	NaN	NaN	NaN	-1962.9	124.92	326.09	-2059.9	110.75	364.99	NaN	NaN	NaN	-2061.6	85.041	402.2	-1894.6	61.363	456.83	-1856.3	45.54	354.92	-1807.9	53.23	402.71	-1600.1	637.67	186.11	-1500.9	575.88	179.91	-1558.3	560.13	204.3	-1541.4	651.58	156.48	-1479.3	501.94	194.78	-1462.6	513.35	328.44	-1462.3	360	185.54	-1367.2	306.63	192.46	-1429.5	290.78	190.29	-1397.6	377.92	185.08	-1312	118.86	209.18	-1287.1	131.13	300.59	-1348.6	55.71	269.85	-1320.2	45.183	300.7	-1332.8	29.319	242.71	-1190.8	108.39	168.03	-1153.6	145.51	271.72	-1127.1	180.2	205.75	-1718.5	1463.7	344.39	-1775.1	1197	337.18
7	0.025	NaN	NaN	NaN	-1630	1416.5	485.23	-1646.3	1403.1	173.38	-1626.4	1712	317.15	NaN	NaN	NaN	NaN	NaN	NaN	-1783.4	1028.2	364.64	-1770.4	1019.1	275.97	-1665	917.97	529.54	NaN	NaN	NaN	-1660	1081.4	496.46	-1655	1083.9	171.49	-1795.5	988.24	316.64	NaN	NaN	NaN	NaN	NaN	NaN	NaN	NaN	NaN	NaN	NaN	NaN	-1755.5	498.04	445.83	NaN	NaN	NaN	-1897.2	369.36	447.69	NaN	NaN	NaN	-1931.7	301.91	434.86	NaN	NaN	NaN	NaN	NaN	NaN	-1961.5	126.01	325.97	-2058.9	112.9	364.84	NaN	NaN	NaN	-2060.6	87.423	401.99	-1894.5	61.617	456.94	-1856	45.53	355.01	-1807.6	53.005	402.83	-1592.4	637.2	185.78	-1493.5	575.82	179.96	-1550.5	559.77	204.17	-1533.5	651.28	156.58	-1472.7	501.84	195.27	-1454.8	513.72	328.4	-1456.7	359.48	185.86	-1362.1	304.75	193.22	-1424.6	289.75	190.71	-1391.8	376.51	185.88	-1309.5	116.93	209.8	-1284.9	128.29	301.48	-1346.9	54.897	270.09	-1318.4	43.615	301.28	-1332	28.614	242.91	-1188.4	104.84	169.17	-1151.2	141.05	273.05	-1124	175.67	207.25	-1712.7	1462.6	343.58	-1769	1195.9	336.33
8	0.029167	NaN	NaN	NaN	-1624.3	1415.4	484.46	-1640.3	1402.3	172.56	-1620.7	1711.1	316.53	NaN	NaN	NaN	NaN	NaN	NaN	-1777	1027	364	-1763.9	1018.2	275.28	-1658.7	916.62	528.79	NaN	NaN	NaN	-1653.7	1080.2	495.88	-1648.7	1083.3	170.91	-1789	987.15	315.88	NaN	NaN	NaN	NaN	NaN	NaN	NaN	NaN	NaN	NaN	NaN	NaN	-1749.4	496.75	445.08	NaN	NaN	NaN	-1892.5	369.7	447.08	NaN	NaN	NaN	-1927.9	302.69	434.41	NaN	NaN	NaN	NaN	NaN	NaN	-1960.1	127.17	325.84	-2057.7	115.2	364.68	NaN	NaN	NaN	-2059.6	89.961	401.75	-1894.7	61.663	457.07	-1855.7	45.517	355.09	-1807.3	52.786	402.96	-1584.6	636.75	185.43	-1486.1	575.74	180.01	-1542.7	559.43	204.02	-1525.6	650.99	156.68	-1466.3	501.79	195.72	-1447	514.07	328.35	-1450.9	358.99	186.15	-1356.9	302.99	193.92	-1419.5	288.79	191.12	-1385.9	375.14	186.65	-1306.9	115.12	210.38	-1282.6	125.57	302.3	-1345	54.309	270.32	-1316.8	42.287	301.8	-1331.2	28.099	243.1	-1185.9	101.32	170.28	-1148.8	136.53	274.29	-1120.7	171.07	208.68	-1706.8	1461.6	342.76	-1762.7	1194.7	335.47
9	0.033333	NaN	NaN	NaN	-1618.5	1414.3	483.68	-1634.3	1401.5	171.72	-1614.9	1710.2	315.9	NaN	NaN	NaN	NaN	NaN	NaN	-1770.5	1025.8	363.35	-1757.3	1017.3	274.59	-1652.3	915.28	528.03	NaN	NaN	NaN	-1647.2	1079	495.29	-1642.2	1082.8	170.31	-1782.4	986.09	315.11	NaN	NaN	NaN	NaN	NaN	NaN	NaN	NaN	NaN	NaN	NaN	NaN	-1743.2	495.44	444.34	NaN	NaN	NaN	-1887.7	370.09	446.48	NaN	NaN	NaN	-1923.9	303.51	433.95	NaN	NaN	NaN	NaN	NaN	NaN	-1958.5	128.41	325.71	-2056.5	117.66	364.49	NaN	NaN	NaN	-2058.4	92.65	401.48	-1895.1	61.518	457.23	-1855.4	45.5	355.18	-1807.1	52.573	403.07	-1576.9	636.35	185.08	-1478.7	575.63	180.04	-1535	559.11	203.86	-1517.7	650.72	156.75	-1459.9	501.79	196.11	-1439.2	514.4	328.27	-1445	358.54	186.42	-1351.5	301.36	194.57	-1414.3	287.91	191.5	-1380	373.85	187.41	-1304.1	113.45	210.94	-1280	123	303.06	-1343.1	53.948	270.53	-1315.2	41.204	302.26	-1330.4	27.775	243.29	-1183.4	97.824	171.36	-1146.2	131.98	275.42	-1117.3	166.41	210.03	-1700.9	1460.6	341.92	-1756.4	1193.6	334.6
